$MeshFormat
2.2 0 8
$EndMeshFormat
$Nodes
617
1 -1.0000000000000000e+01 -2.0000000000000000e+00 0.0000000000000000e+00
2 0.0000000000000000e+00 -2.0000000000000000e+00 0.0000000000000000e+00
3 0.0000000000000000e+00 -5.0000000000000000e-01 0.0000000000000000e+00
4 2.0000000000000000e+01 -5.0000000000000000e-01 0.0000000000000000e+00
5 2.0000000000000000e+01 5.0000000000000000e-01 0.0000000000000000e+00
6 0.0000000000000000e+00 5.0000000000000000e-01 0.0000000000000000e+00
7 0.0000000000000000e+00 2.0000000000000000e+00 0.0000000000000000e+00
8 -1.0000000000000000e+01 2.0000000000000000e+00 0.0000000000000000e+00
9 -9.5999999999999996e+00 -2.0000000000000000e+00 0.0000000000000000e+00
10 -9.1999999999999993e+00 -2.0000000000000000e+00 0.0000000000000000e+00
11 -8.7999999999999989e+00 -2.0000000000000000e+00 0.0000000000000000e+00
12 -8.3999999999999986e+00 -2.0000000000000000e+00 0.0000000000000000e+00
13 -7.9999999999999964e+00 -2.0000000000000000e+00 0.0000000000000000e+00
14 -7.5999999999999952e+00 -2.0000000000000000e+00 0.0000000000000000e+00
15 -7.1999999999999940e+00 -2.0000000000000000e+00 0.0000000000000000e+00
16 -6.7999999999999936e+00 -2.0000000000000000e+00 0.0000000000000000e+00
17 -6.3999999999999932e+00 -2.0000000000000000e+00 0.0000000000000000e+00
18 -5.9999999999999947e+00 -2.0000000000000000e+00 0.0000000000000000e+00
19 -5.5999999999999943e+00 -2.0000000000000000e+00 0.0000000000000000e+00
20 -5.1999999999999948e+00 -2.0000000000000000e+00 0.0000000000000000e+00
21 -4.7999999999999954e+00 -2.0000000000000000e+00 0.0000000000000000e+00
22 -4.3999999999999959e+00 -2.0000000000000000e+00 0.0000000000000000e+00
23 -3.9999999999999964e+00 -2.0000000000000000e+00 0.0000000000000000e+00
24 -3.5999999999999961e+00 -2.0000000000000000e+00 0.0000000000000000e+00
25 -3.1999999999999975e+00 -2.0000000000000000e+00 0.0000000000000000e+00
26 -2.7999999999999972e+00 -2.0000000000000000e+00 0.0000000000000000e+00
27 -2.3999999999999977e+00 -2.0000000000000000e+00 0.0000000000000000e+00
28 -1.9999999999999982e+00 -2.0000000000000000e+00 0.0000000000000000e+00
29 -1.5999999999999979e+00 -2.0000000000000000e+00 0.0000000000000000e+00
30 -1.1999999999999993e+00 -2.0000000000000000e+00 0.0000000000000000e+00
31 -7.9999999999999893e-01 -2.0000000000000000e+00 0.0000000000000000e+00
32 -3.9999999999999858e-01 -2.0000000000000000e+00 0.0000000000000000e+00
33 0.0000000000000000e+00 -1.6250000000017555e+00 0.0000000000000000e+00
34 0.0000000000000000e+00 -1.2500000000011686e+00 0.0000000000000000e+00
35 0.0000000000000000e+00 -8.7500000000058398e-01 0.0000000000000000e+00
36 3.9999999999971203e-01 -5.0000000000000000e-01 0.0000000000000000e+00
37 7.9999999999933546e-01 -5.0000000000000000e-01 0.0000000000000000e+00
38 1.1999999999989366e+00 -5.0000000000000000e-01 0.0000000000000000e+00
39 1.5999999999986569e+00 -5.0000000000000000e-01 0.0000000000000000e+00
40 1.9999999999983777e+00 -5.0000000000000000e-01 0.0000000000000000e+00
41 2.3999999999980677e+00 -5.0000000000000000e-01 0.0000000000000000e+00
42 2.7999999999971532e+00 -5.0000000000000000e-01 0.0000000000000000e+00
43 3.1999999999959856e+00 -5.0000000000000000e-01 0.0000000000000000e+00
44 3.5999999999948185e+00 -5.0000000000000000e-01 0.0000000000000000e+00
45 3.9999999999936504e+00 -5.0000000000000000e-01 0.0000000000000000e+00
46 4.3999999999924828e+00 -5.0000000000000000e-01 0.0000000000000000e+00
47 4.7999999999913161e+00 -5.0000000000000000e-01 0.0000000000000000e+00
48 5.1999999999901476e+00 -5.0000000000000000e-01 0.0000000000000000e+00
49 5.5999999999889809e+00 -5.0000000000000000e-01 0.0000000000000000e+00
50 5.9999999999878124e+00 -5.0000000000000000e-01 0.0000000000000000e+00
51 6.3999999999866457e+00 -5.0000000000000000e-01 0.0000000000000000e+00
52 6.7999999999854763e+00 -5.0000000000000000e-01 0.0000000000000000e+00
53 7.1999999999843105e+00 -5.0000000000000000e-01 0.0000000000000000e+00
54 7.5999999999831420e+00 -5.0000000000000000e-01 0.0000000000000000e+00
55 7.9999999999820437e+00 -5.0000000000000000e-01 0.0000000000000000e+00
56 8.3999999999823753e+00 -5.0000000000000000e-01 0.0000000000000000e+00
57 8.7999999999829832e+00 -5.0000000000000000e-01 0.0000000000000000e+00
58 9.1999999999835893e+00 -5.0000000000000000e-01 0.0000000000000000e+00
59 9.5999999999841990e+00 -5.0000000000000000e-01 0.0000000000000000e+00
60 9.9999999999848050e+00 -5.0000000000000000e-01 0.0000000000000000e+00
61 1.0399999999985411e+01 -5.0000000000000000e-01 0.0000000000000000e+00
62 1.0799999999986021e+01 -5.0000000000000000e-01 0.0000000000000000e+00
63 1.1199999999986630e+01 -5.0000000000000000e-01 0.0000000000000000e+00
64 1.1599999999987237e+01 -5.0000000000000000e-01 0.0000000000000000e+00
65 1.1999999999987844e+01 -5.0000000000000000e-01 0.0000000000000000e+00
66 1.2399999999988454e+01 -5.0000000000000000e-01 0.0000000000000000e+00
67 1.2799999999989060e+01 -5.0000000000000000e-01 0.0000000000000000e+00
68 1.3199999999989666e+01 -5.0000000000000000e-01 0.0000000000000000e+00
69 1.3599999999990276e+01 -5.0000000000000000e-01 0.0000000000000000e+00
70 1.3999999999990882e+01 -5.0000000000000000e-01 0.0000000000000000e+00
71 1.4399999999991493e+01 -5.0000000000000000e-01 0.0000000000000000e+00
72 1.4799999999992099e+01 -5.0000000000000000e-01 0.0000000000000000e+00
73 1.5199999999992706e+01 -5.0000000000000000e-01 0.0000000000000000e+00
74 1.5599999999993315e+01 -5.0000000000000000e-01 0.0000000000000000e+00
75 1.5999999999993921e+01 -5.0000000000000000e-01 0.0000000000000000e+00
76 1.6399999999994527e+01 -5.0000000000000000e-01 0.0000000000000000e+00
77 1.6799999999995137e+01 -5.0000000000000000e-01 0.0000000000000000e+00
78 1.7199999999995747e+01 -5.0000000000000000e-01 0.0000000000000000e+00
79 1.7599999999996353e+01 -5.0000000000000000e-01 0.0000000000000000e+00
80 1.7999999999996959e+01 -5.0000000000000000e-01 0.0000000000000000e+00
81 1.8399999999997569e+01 -5.0000000000000000e-01 0.0000000000000000e+00
82 1.8799999999998175e+01 -5.0000000000000000e-01 0.0000000000000000e+00
83 1.9199999999998784e+01 -5.0000000000000000e-01 0.0000000000000000e+00
84 1.9599999999999394e+01 -5.0000000000000000e-01 0.0000000000000000e+00
85 2.0000000000000000e+01 -1.6666666666759133e-01 0.0000000000000000e+00
86 2.0000000000000000e+01 1.6666666666574192e-01 0.0000000000000000e+00
87 1.9599999999999998e+01 5.0000000000000000e-01 0.0000000000000000e+00
88 1.9199999999999999e+01 5.0000000000000000e-01 0.0000000000000000e+00
89 1.8799999999999997e+01 5.0000000000000000e-01 0.0000000000000000e+00
90 1.8399999999999999e+01 5.0000000000000000e-01 0.0000000000000000e+00
91 1.7999999999999996e+01 5.0000000000000000e-01 0.0000000000000000e+00
92 1.7599999999999998e+01 5.0000000000000000e-01 0.0000000000000000e+00
93 1.7199999999999996e+01 5.0000000000000000e-01 0.0000000000000000e+00
94 1.6799999999999997e+01 5.0000000000000000e-01 0.0000000000000000e+00
95 1.6399999999999995e+01 5.0000000000000000e-01 0.0000000000000000e+00
96 1.5999999999999993e+01 5.0000000000000000e-01 0.0000000000000000e+00
97 1.5599999999999993e+01 5.0000000000000000e-01 0.0000000000000000e+00
98 1.5199999999999990e+01 5.0000000000000000e-01 0.0000000000000000e+00
99 1.4799999999999990e+01 5.0000000000000000e-01 0.0000000000000000e+00
100 1.4399999999999988e+01 5.0000000000000000e-01 0.0000000000000000e+00
101 1.3999999999999986e+01 5.0000000000000000e-01 0.0000000000000000e+00
102 1.3599999999999987e+01 5.0000000000000000e-01 0.0000000000000000e+00
103 1.3199999999999987e+01 5.0000000000000000e-01 0.0000000000000000e+00
104 1.2799999999999986e+01 5.0000000000000000e-01 0.0000000000000000e+00
105 1.2399999999999988e+01 5.0000000000000000e-01 0.0000000000000000e+00
106 1.1999999999999989e+01 5.0000000000000000e-01 0.0000000000000000e+00
107 1.1599999999999987e+01 5.0000000000000000e-01 0.0000000000000000e+00
108 1.1199999999999989e+01 5.0000000000000000e-01 0.0000000000000000e+00
109 1.0799999999999990e+01 5.0000000000000000e-01 0.0000000000000000e+00
110 1.0399999999999990e+01 5.0000000000000000e-01 0.0000000000000000e+00
111 9.9999999999999911e+00 5.0000000000000000e-01 0.0000000000000000e+00
112 9.5999999999999908e+00 5.0000000000000000e-01 0.0000000000000000e+00
113 9.1999999999999922e+00 5.0000000000000000e-01 0.0000000000000000e+00
114 8.7999999999999918e+00 5.0000000000000000e-01 0.0000000000000000e+00
115 8.3999999999999915e+00 5.0000000000000000e-01 0.0000000000000000e+00
116 7.9999999999999929e+00 5.0000000000000000e-01 0.0000000000000000e+00
117 7.5999999999999943e+00 5.0000000000000000e-01 0.0000000000000000e+00
118 7.1999999999999922e+00 5.0000000000000000e-01 0.0000000000000000e+00
119 6.7999999999999936e+00 5.0000000000000000e-01 0.0000000000000000e+00
120 6.3999999999999950e+00 5.0000000000000000e-01 0.0000000000000000e+00
121 5.9999999999999947e+00 5.0000000000000000e-01 0.0000000000000000e+00
122 5.5999999999999943e+00 5.0000000000000000e-01 0.0000000000000000e+00
123 5.1999999999999940e+00 5.0000000000000000e-01 0.0000000000000000e+00
124 4.7999999999999954e+00 5.0000000000000000e-01 0.0000000000000000e+00
125 4.3999999999999950e+00 5.0000000000000000e-01 0.0000000000000000e+00
126 3.9999999999999964e+00 5.0000000000000000e-01 0.0000000000000000e+00
127 3.5999999999999979e+00 5.0000000000000000e-01 0.0000000000000000e+00
128 3.1999999999999957e+00 5.0000000000000000e-01 0.0000000000000000e+00
129 2.7999999999999972e+00 5.0000000000000000e-01 0.0000000000000000e+00
130 2.3999999999999986e+00 5.0000000000000000e-01 0.0000000000000000e+00
131 1.9999999999999964e+00 5.0000000000000000e-01 0.0000000000000000e+00
132 1.5999999999999979e+00 5.0000000000000000e-01 0.0000000000000000e+00
133 1.2000000000000028e+00 5.0000000000000000e-01 0.0000000000000000e+00
134 7.9999999999999716e-01 5.0000000000000000e-01 0.0000000000000000e+00
135 3.9999999999999858e-01 5.0000000000000000e-01 0.0000000000000000e+00
136 0.0000000000000000e+00 8.7499999999814682e-01 0.0000000000000000e+00
137 0.0000000000000000e+00 1.2499999999981588e+00 0.0000000000000000e+00
138 0.0000000000000000e+00 1.6249999999990798e+00 0.0000000000000000e+00
139 -3.9999999999966773e-01 2.0000000000000000e+00 0.0000000000000000e+00
140 -7.9999999999932847e-01 2.0000000000000000e+00 0.0000000000000000e+00
141 -1.1999999999990338e+00 2.0000000000000000e+00 0.0000000000000000e+00
142 -1.5999999999979928e+00 2.0000000000000000e+00 0.0000000000000000e+00
143 -1.9999999999968252e+00 2.0000000000000000e+00 0.0000000000000000e+00
144 -2.3999999999956581e+00 2.0000000000000000e+00 0.0000000000000000e+00
145 -2.7999999999944905e+00 2.0000000000000000e+00 0.0000000000000000e+00
146 -3.1999999999933229e+00 2.0000000000000000e+00 0.0000000000000000e+00
147 -3.5999999999921553e+00 2.0000000000000000e+00 0.0000000000000000e+00
148 -3.9999999999910218e+00 2.0000000000000000e+00 0.0000000000000000e+00
149 -4.3999999999914916e+00 2.0000000000000000e+00 0.0000000000000000e+00
150 -4.7999999999920995e+00 2.0000000000000000e+00 0.0000000000000000e+00
151 -5.1999999999927056e+00 2.0000000000000000e+00 0.0000000000000000e+00
152 -5.5999999999933152e+00 2.0000000000000000e+00 0.0000000000000000e+00
153 -5.9999999999939222e+00 2.0000000000000000e+00 0.0000000000000000e+00
154 -6.3999999999945301e+00 2.0000000000000000e+00 0.0000000000000000e+00
155 -6.7999999999951379e+00 2.0000000000000000e+00 0.0000000000000000e+00
156 -7.1999999999957467e+00 2.0000000000000000e+00 0.0000000000000000e+00
157 -7.5999999999963528e+00 2.0000000000000000e+00 0.0000000000000000e+00
158 -7.9999999999969607e+00 2.0000000000000000e+00 0.0000000000000000e+00
159 -8.3999999999975685e+00 2.0000000000000000e+00 0.0000000000000000e+00
160 -8.7999999999981764e+00 2.0000000000000000e+00 0.0000000000000000e+00
161 -9.1999999999987843e+00 2.0000000000000000e+00 0.0000000000000000e+00
162 -9.5999999999993921e+00 2.0000000000000000e+00 0.0000000000000000e+00
163 -1.0000000000000000e+01 1.6000000000011094e+00 0.0000000000000000e+00
164 -1.0000000000000000e+01 1.2000000000022193e+00 0.0000000000000000e+00
165 -1.0000000000000000e+01 8.0000000000332872e-01 0.0000000000000000e+00
166 -1.0000000000000000e+01 4.0000000000443836e-01 0.0000000000000000e+00
167 -1.0000000000000000e+01 5.5044857560915261e-12 0.0000000000000000e+00
168 -1.0000000000000000e+01 -3.9999999999556168e-01 0.0000000000000000e+00
169 -1.0000000000000000e+01 -7.9999999999667093e-01 0.0000000000000000e+00
170 -1.0000000000000000e+01 -1.1999999999977806e+00 0.0000000000000000e+00
171 -1.0000000000000000e+01 -1.5999999999988908e+00 0.0000000000000000e+00
172 -2.1989383446659536e+00 1.6535908708926170e+00 0.0000000000000000e+00
173 -3.3978978223708163e+00 1.6510227587242861e+00 0.0000000000000000e+00
174 -7.8000056155526112e+00 -1.6535875906807684e+00 0.0000000000000000e+00
175 -6.6000647184872268e+00 -1.6535416259122950e+00 0.0000000000000000e+00
176 -5.3999999999999950e+00 -1.6535898384862244e+00 0.0000000000000000e+00
177 -4.2000939787547384e+00 -1.6535579006582177e+00 0.0000000000000000e+00
178 -1.7999999999999980e+00 -1.6535898384862249e+00 0.0000000000000000e+00
179 -3.0004502485082858e+00 -1.6664614398792568e+00 0.0000000000000000e+00
180 -4.9899774060459432e+00 1.6703904475015354e+00 0.0000000000000000e+00
181 -6.1494869203626870e+00 1.6544354598950075e+00 0.0000000000000000e+00
182 -7.3980469609879584e+00 1.6321446066967917e+00 0.0000000000000000e+00
183 -9.6429403241742513e+00 1.9210047150827345e-01 0.0000000000000000e+00
184 -3.2603477511820012e-01 6.8811918009004180e-01 0.0000000000000000e+00
185 -3.1089529005502015e-01 -6.7160408045110909e-01 0.0000000000000000e+00
186 -8.5920856431298773e+00 1.6303693176614049e+00 0.0000000000000000e+00
187 -9.6367374123277632e+00 -6.0788294492818773e-01 0.0000000000000000e+00
188 -4.1978679240730301e+00 1.6503159078653049e+00 0.0000000000000000e+00
189 -8.6380157655699144e+00 -1.6136698666345373e+00 0.0000000000000000e+00
190 -1.4063616157529855e+00 1.6580097279635968e+00 0.0000000000000000e+00
191 -9.6105625753835824e+00 9.6633175671758709e-01 0.0000000000000000e+00
192 -9.9172607550799319e-01 -1.6179626806612604e+00 0.0000000000000000e+00
193 -3.2139490692982681e-01 3.2306129178327087e-01 0.0000000000000000e+00
194 -6.5383969265345798e-01 5.0040989615641440e-01 0.0000000000000000e+00
195 -6.5249071925159929e-01 8.8017840689963189e-01 0.0000000000000000e+00
196 -9.8485478785975278e-01 6.9084294717150252e-01 0.0000000000000000e+00
197 -9.8552287643057634e-01 3.0644738887506534e-01 0.0000000000000000e+00
198 -1.3205057410782834e+00 4.9911441014960173e-01 0.0000000000000000e+00
199 -1.3203554702072928e+00 1.1009379606909640e-01 0.0000000000000000e+00
200 -1.6583121204060072e+00 3.0537144319093518e-01 0.0000000000000000e+00
201 -1.6578698099460321e+00 -8.6694805927540988e-02 0.0000000000000000e+00
202 -1.9981392514536940e+00 1.0988878995590280e-01 0.0000000000000000e+00
203 -1.9977247372247089e+00 -2.8313974747703263e-01 0.0000000000000000e+00
204 -2.3396233396267876e+00 -8.6446170440128409e-02 0.0000000000000000e+00
205 -2.3439211484909146e+00 3.0013578556870696e-01 0.0000000000000000e+00
206 -2.6829480950666036e+00 1.1010443740986491e-01 0.0000000000000000e+00
207 -2.6820346070423096e+00 -2.8431915311280404e-01 0.0000000000000000e+00
208 -3.0256623631487063e+00 -8.6785686694577813e-02 0.0000000000000000e+00
209 -3.0322731202661046e+00 2.9829442125575922e-01 0.0000000000000000e+00
210 -3.3705785617711119e+00 1.1003786331577771e-01 0.0000000000000000e+00
211 -3.4000201712520792e+00 -3.1459452736487331e-01 0.0000000000000000e+00
212 -3.7295459773130233e+00 -7.3876113145198347e-02 0.0000000000000000e+00
213 -3.7092881153837531e+00 3.1336677072869795e-01 0.0000000000000000e+00
214 -4.0491530554774178e+00 1.3119201411491344e-01 0.0000000000000000e+00
215 -4.0584355150562663e+00 -2.8588386687677103e-01 0.0000000000000000e+00
216 -4.4031159876836501e+00 -9.1575080446657797e-02 0.0000000000000000e+00
217 -4.3884809126546074e+00 3.2258808029537867e-01 0.0000000000000000e+00
218 -4.7490292233580353e+00 1.1268354722337240e-01 0.0000000000000000e+00
219 -4.7507697618759810e+00 -2.9425483930785606e-01 0.0000000000000000e+00
220 -5.0950206093986070e+00 -8.8053994282518172e-02 0.0000000000000000e+00
221 -5.0946554671847597e+00 3.1225145440371477e-01 0.0000000000000000e+00
222 -5.4405320686260064e+00 1.1273654392669545e-01 0.0000000000000000e+00
223 -5.4405390328329988e+00 -2.8638949961543930e-01 0.0000000000000000e+00
224 -5.7864331563042954e+00 -8.6654307218594170e-02 0.0000000000000000e+00
225 -5.7888026759274460e+00 -4.9861630308267868e-01 0.0000000000000000e+00
226 -6.1328624132253227e+00 -2.8841546587217159e-01 0.0000000000000000e+00
227 -6.1324872996420634e+00 1.1286632196371915e-01 0.0000000000000000e+00
228 -6.4786311211785268e+00 -8.6889068181626838e-02 0.0000000000000000e+00
229 -6.4784512514768959e+00 3.1321225084931603e-01 0.0000000000000000e+00
230 -6.8206173002067310e+00 1.3024174839312511e-01 0.0000000000000000e+00
231 -6.8250500248943542e+00 -2.9102710086915445e-01 0.0000000000000000e+00
232 -7.1751936217061232e+00 -1.0577275569850718e-01 0.0000000000000000e+00
233 -7.1709253200137990e+00 3.1339400343355295e-01 0.0000000000000000e+00
234 -7.5179502379445147e+00 1.1031085399211162e-01 0.0000000000000000e+00
235 -7.5251986229311854e+00 -2.9918179269202344e-01 0.0000000000000000e+00
236 -7.8650200054169908e+00 -8.9045886820870709e-02 0.0000000000000000e+00
237 -7.8637878553122134e+00 3.1282911689044207e-01 0.0000000000000000e+00
238 -8.2101753466650980e+00 1.1306117633850719e-01 0.0000000000000000e+00
239 -8.2102248919388874e+00 -2.8683682598623161e-01 0.0000000000000000e+00
240 -5.4403538205625068e+00 5.1229343889794210e-01 0.0000000000000000e+00
241 -1.6562165399706830e+00 -4.7962980134240712e-01 0.0000000000000000e+00
242 -8.2098858868143729e+00 5.1343692647331185e-01 0.0000000000000000e+00
243 -8.5563649891112075e+00 -8.6479804102671032e-02 0.0000000000000000e+00
244 -8.5563772109211804e+00 -4.8636061763783833e-01 0.0000000000000000e+00
245 -1.9971007312188491e+00 -6.7753293417216875e-01 0.0000000000000000e+00
246 -1.6767113644940239e+00 6.6611215310996064e-01 0.0000000000000000e+00
247 -6.1668559703782169e+00 -7.0324331898705361e-01 0.0000000000000000e+00
248 -8.1977612957000829e+00 -6.8921258451741874e-01 0.0000000000000000e+00
249 -7.8635144044847793e+00 7.1332125174425742e-01 0.0000000000000000e+00
250 -5.4404307284583853e+00 -6.8584279153190042e-01 0.0000000000000000e+00
251 -5.1183957471006094e+00 7.0739355569572815e-01 0.0000000000000000e+00
252 -5.4463621708039724e+00 9.0731446945539129e-01 0.0000000000000000e+00
253 -9.8374213411572908e-01 -7.0421975720410021e-02 0.0000000000000000e+00
254 -9.6625217640325438e+00 -1.3845294511414785e+00 0.0000000000000000e+00
255 -1.6546292949434664e+00 -8.7332262254781312e-01 0.0000000000000000e+00
256 -1.3212106473466203e+00 -6.7537151211309043e-01 0.0000000000000000e+00
257 -5.7873106246878834e+00 7.1154513626899829e-01 0.0000000000000000e+00
258 -8.8989484173043607e+00 -2.7980019108712539e-01 0.0000000000000000e+00
259 -8.9214498502265442e+00 -6.5642559626135488e-01 0.0000000000000000e+00
260 -8.9020114326925608e+00 1.1476120596136924e-01 0.0000000000000000e+00
261 -8.2136489847834184e+00 9.2980611149516657e-01 0.0000000000000000e+00
262 -8.5568282434669278e+00 7.1627108182937693e-01 0.0000000000000000e+00
263 -3.2475952641956812e-01 1.4374999999986187e+00 0.0000000000000000e+00
264 1.9712502951905730e+01 -4.3720144574212090e-03 0.0000000000000000e+00
265 -3.5891389768383136e-01 -1.3953464771697255e+00 0.0000000000000000e+00
266 2.5865629496320935e-01 -1.2696846574425594e-01 0.0000000000000000e+00
267 -9.7618398228261327e-01 1.0726421940777378e+00 0.0000000000000000e+00
268 -9.3944774024049558e+00 1.6977405988174945e+00 0.0000000000000000e+00
269 -7.8692313908224003e+00 1.1333582288968596e+00 0.0000000000000000e+00
270 -7.4579040747221281e+00 9.4213037444829839e-01 0.0000000000000000e+00
271 2.5999999999976104e+00 -1.5358983848712596e-01 0.0000000000000000e+00
272 9.9999999999913591e-01 -1.5358983848656985e-01 0.0000000000000000e+00
273 3.3999999999954009e+00 -1.5358983848723576e-01 0.0000000000000000e+00
274 1.7999999999985175e+00 -1.5358983848647975e-01 0.0000000000000000e+00
275 4.1999999999930653e+00 -1.5358983848723576e-01 0.0000000000000000e+00
276 1.8929220105239633e+01 1.6904144001357049e-01 0.0000000000000000e+00
277 1.8199999999999985e+01 1.5358983848622568e-01 0.0000000000000000e+00
278 4.9999999999907319e+00 -1.5358983848723637e-01 0.0000000000000000e+00
279 1.7399999999999999e+01 1.5358983848622568e-01 0.0000000000000000e+00
280 1.6600000000000016e+01 1.5358983848622412e-01 0.0000000000000000e+00
281 5.7999999999883975e+00 -1.5358983848723637e-01 0.0000000000000000e+00
282 1.5800000000000002e+01 1.5358983848622412e-01 0.0000000000000000e+00
283 1.4999999999999988e+01 1.5358983848622412e-01 0.0000000000000000e+00
284 6.5999999999860597e+00 -1.5358983848723715e-01 0.0000000000000000e+00
285 1.4199999999999982e+01 1.5358983848622412e-01 0.0000000000000000e+00
286 1.3399999999999986e+01 1.5358983848622490e-01 0.0000000000000000e+00
287 7.3999999999837289e+00 -1.5358983848723637e-01 0.0000000000000000e+00
288 1.2599999999999989e+01 1.5358983848622568e-01 0.0000000000000000e+00
289 1.1799999999999999e+01 1.5358983848622568e-01 0.0000000000000000e+00
290 1.0999999999999984e+01 1.5358983848622568e-01 0.0000000000000000e+00
291 8.1999999999822091e+00 -1.5358983848655641e-01 0.0000000000000000e+00
292 1.0199999999999982e+01 1.5358983848622568e-01 0.0000000000000000e+00
293 9.3999999999999932e+00 1.5358983848622568e-01 0.0000000000000000e+00
294 -5.7753813705878159e+00 1.1110519094779754e+00 0.0000000000000000e+00
295 -6.1714720739640256e+00 9.3857404202303185e-01 0.0000000000000000e+00
296 -3.2386651120642057e-01 -3.4118838778233407e-01 0.0000000000000000e+00
297 -1.9970202101778103e+00 -1.0606011145411107e+00 0.0000000000000000e+00
298 -2.3395561141707160e+00 -8.7560229048945537e-01 0.0000000000000000e+00
299 -2.3742783923770157e+00 -1.3003649085445177e+00 0.0000000000000000e+00
300 -2.6964004927793894e+00 -1.0454367803007167e+00 0.0000000000000000e+00
301 -1.3061429192944924e+00 -1.0538549590184096e+00 0.0000000000000000e+00
302 -9.2833430901900327e-01 -8.3055117157877068e-01 0.0000000000000000e+00
303 -5.4436391972421543e+00 1.2818277833667409e+00 0.0000000000000000e+00
304 -8.5561276364571750e+00 1.1135171290731278e+00 0.0000000000000000e+00
305 -8.8952367835263431e+00 9.1404222112625633e-01 0.0000000000000000e+00
306 -6.4751923321956284e-01 -5.1275346971531666e-01 0.0000000000000000e+00
307 8.5999999999999872e+00 1.5358983848622490e-01 0.0000000000000000e+00
308 6.0571374562253921e-01 1.4811395803684838e-01 0.0000000000000000e+00
309 1.4000000000000006e+00 1.5358983848622873e-01 0.0000000000000000e+00
310 2.1999999999999980e+00 1.5358983848622568e-01 0.0000000000000000e+00
311 1.8599999999997884e+01 -1.5358983848569954e-01 0.0000000000000000e+00
312 2.9999999999999973e+00 1.5358983848622568e-01 0.0000000000000000e+00
313 1.7799999999996633e+01 -1.5358983848569954e-01 0.0000000000000000e+00
314 1.6999999999995435e+01 -1.5358983848569799e-01 0.0000000000000000e+00
315 3.7999999999999972e+00 1.5358983848622568e-01 0.0000000000000000e+00
316 1.6199999999994251e+01 -1.5358983848569954e-01 0.0000000000000000e+00
317 1.5399999999993003e+01 -1.5358983848569954e-01 0.0000000000000000e+00
318 4.5999999999999961e+00 1.5358983848622568e-01 0.0000000000000000e+00
319 1.4599999999991780e+01 -1.5358983848569954e-01 0.0000000000000000e+00
320 1.3799999999990559e+01 -1.5358983848569954e-01 0.0000000000000000e+00
321 5.3999999999999924e+00 1.5358983848622490e-01 0.0000000000000000e+00
322 1.2999999999989367e+01 -1.5358983848569954e-01 0.0000000000000000e+00
323 1.2199999999988146e+01 -1.5358983848569877e-01 0.0000000000000000e+00
324 6.1999999999999957e+00 1.5358983848622490e-01 0.0000000000000000e+00
325 1.1399999999986926e+01 -1.5358983848569954e-01 0.0000000000000000e+00
326 1.0599999999985714e+01 -1.5358983848569799e-01 0.0000000000000000e+00
327 6.9999999999999991e+00 1.5358983848622568e-01 0.0000000000000000e+00
328 9.7999999999844984e+00 -1.5358983848569954e-01 0.0000000000000000e+00
329 8.9999999999832916e+00 -1.5358983848569954e-01 0.0000000000000000e+00
330 7.7999999999999954e+00 1.5358983848622568e-01 0.0000000000000000e+00
331 -9.2539857240563919e+00 -6.8283203292712993e-02 0.0000000000000000e+00
332 -8.9145220132053531e+00 1.3117372700025887e+00 0.0000000000000000e+00
333 -8.2167062680478686e+00 1.3649767412394189e+00 0.0000000000000000e+00
334 -7.8345484065773938e+00 1.5956253527433217e+00 0.0000000000000000e+00
335 -5.7714985496322599e+00 1.4732603562767341e+00 0.0000000000000000e+00
336 -9.2418409000550970e+00 3.4270417287792343e-01 0.0000000000000000e+00
337 -9.5961848280643878e+00 5.7519352205585794e-01 0.0000000000000000e+00
338 -9.2489119825510144e+00 1.1136157939533440e+00 0.0000000000000000e+00
339 -1.4177205896861529e+00 -1.6523234074193986e+00 0.0000000000000000e+00
340 -1.0330462977288986e+00 1.6702591807115776e+00 0.0000000000000000e+00
341 -1.8006575441366888e+00 1.6549793846979235e+00 0.0000000000000000e+00
342 -1.9987248642780777e+00 1.3178335397600960e+00 0.0000000000000000e+00
343 -2.3975169131785861e+00 1.3087667687517242e+00 0.0000000000000000e+00
344 -2.1873883079155649e+00 1.0084919542731616e+00 0.0000000000000000e+00
345 -2.5704527436990969e+00 9.5772748037626509e-01 0.0000000000000000e+00
346 -2.7922956408305653e+00 1.3052831097264512e+00 0.0000000000000000e+00
347 -2.9496934572433027e+00 9.4482020763850638e-01 0.0000000000000000e+00
348 -3.1875296998963880e+00 1.3017907176621180e+00 0.0000000000000000e+00
349 -3.3747636612396543e+00 9.0043489222483830e-01 0.0000000000000000e+00
350 -3.5932891118257126e+00 1.2987105786667248e+00 0.0000000000000000e+00
351 -3.7925172162272962e+00 9.5524542893807474e-01 0.0000000000000000e+00
352 -3.9941161705858459e+00 1.3003170667660924e+00 0.0000000000000000e+00
353 -4.1920184003352290e+00 9.6276238589583796e-01 0.0000000000000000e+00
354 -4.3947271825612235e+00 1.3024298615635785e+00 0.0000000000000000e+00
355 -4.5663195908395595e+00 9.4068478702970404e-01 0.0000000000000000e+00
356 -4.8120472169461914e+00 1.2788692782787765e+00 0.0000000000000000e+00
357 -4.0163195308427007e+00 5.8207732102320453e-01 0.0000000000000000e+00
358 -1.5935285856373447e+00 1.3106423418920523e+00 0.0000000000000000e+00
359 -2.1957130653961734e+00 -1.6674944681156776e+00 0.0000000000000000e+00
360 -2.9960745725433293e+00 1.6516524409388289e+00 0.0000000000000000e+00
361 -9.6285208908194360e+00 -2.1563849360459467e-01 0.0000000000000000e+00
362 -2.5950736177135787e+00 -1.6702170963935252e+00 0.0000000000000000e+00
363 -1.3253798195132600e+00 -2.7978049272947464e-01 0.0000000000000000e+00
364 -1.6339809296108614e+00 -1.2951475116524576e+00 0.0000000000000000e+00
365 -3.7989778321644083e+00 1.6500152369310690e+00 0.0000000000000000e+00
366 -9.7277967106094010e-01 -1.2615543099830633e+00 0.0000000000000000e+00
367 -6.3660862748031710e-01 -1.0785900196740512e+00 0.0000000000000000e+00
368 -9.6526469217462765e+00 -9.9909671381587273e-01 0.0000000000000000e+00
369 -9.3122561563293758e+00 -1.2037547980630927e+00 0.0000000000000000e+00
370 -9.3489618207473786e+00 -1.6325021574245737e+00 0.0000000000000000e+00
371 -8.9873406362207948e+00 -1.4028276150761068e+00 0.0000000000000000e+00
372 -9.2888227624721083e+00 -8.2556055270099638e-01 0.0000000000000000e+00
373 -4.5991032882683287e+00 1.6503342492015323e+00 0.0000000000000000e+00
374 -6.5915765867029492e+00 1.6537386840344446e+00 0.0000000000000000e+00
375 -6.3999999999945221e+00 1.3071796769719857e+00 0.0000000000000000e+00
376 -6.7985692110248213e+00 1.3072331286878962e+00 0.0000000000000000e+00
377 -6.6024542885451751e+00 9.6384679548613894e-01 0.0000000000000000e+00
378 -7.0094187562926411e+00 9.6694586071569744e-01 0.0000000000000000e+00
379 -6.8126815097051692e+00 5.8467077678300117e-01 0.0000000000000000e+00
380 -7.2036322048693258e+00 1.3003494379085832e+00 0.0000000000000000e+00
381 -4.5999963434122879e+00 -1.6536179554641046e+00 0.0000000000000000e+00
382 -4.4000739639021784e+00 -1.3072803590145190e+00 0.0000000000000000e+00
383 -4.0004415891289984e+00 -1.3071094711199585e+00 0.0000000000000000e+00
384 -4.7998876526745677e+00 -1.3073265263033562e+00 0.0000000000000000e+00
385 -4.5954142171719630e+00 -9.6616631374956763e-01 0.0000000000000000e+00
386 -5.0431457217697542e+00 -9.1785989645928778e-01 0.0000000000000000e+00
387 -4.1995957769168282e+00 -9.6785549864127907e-01 0.0000000000000000e+00
388 -3.8007740408111728e+00 -9.6802039934796191e-01 0.0000000000000000e+00
389 -3.6009995501689507e+00 -1.3078804585286985e+00 0.0000000000000000e+00
390 -3.3534846525005699e+00 -9.8451296634690155e-01 0.0000000000000000e+00
391 -4.3971692381498126e+00 -5.5735228433493711e-01 0.0000000000000000e+00
392 -3.6030451471328506e+00 -6.5961931354593706e-01 0.0000000000000000e+00
393 -3.1863280386746018e+00 -1.3586762909832990e+00 0.0000000000000000e+00
394 -3.3980376319332124e+00 -1.6643915792431050e+00 0.0000000000000000e+00
395 -5.1995820796039274e+00 -1.3072060619248305e+00 0.0000000000000000e+00
396 -8.2063368968537524e+00 -1.6469361352100353e+00 0.0000000000000000e+00
397 -8.0010579464986247e+00 -1.3174184445364359e+00 0.0000000000000000e+00
398 -7.6001925850797569e+00 -1.3088868993009326e+00 0.0000000000000000e+00
399 -7.8303508121210923e+00 -9.1925830916790330e-01 0.0000000000000000e+00
400 -7.4000232628222316e+00 -9.6078891201053096e-01 0.0000000000000000e+00
401 -7.2000763676206327e+00 -1.3074569774800608e+00 0.0000000000000000e+00
402 -7.0008479741000054e+00 -9.6703417852669560e-01 0.0000000000000000e+00
403 -7.1878530825124489e+00 -5.7542883132998934e-01 0.0000000000000000e+00
404 -6.8002258053865461e+00 -1.3082522923030249e+00 0.0000000000000000e+00
405 -6.5502459976591005e+00 -9.2118061952314700e-01 0.0000000000000000e+00
406 -6.4001827920169498e+00 -1.3071382150313526e+00 0.0000000000000000e+00
407 -6.2001088173323566e+00 -1.6534773136505170e+00 0.0000000000000000e+00
408 -6.0002636329008663e+00 -1.3176937288281774e+00 0.0000000000000000e+00
409 -5.8001190879107414e+00 -1.6552574214447724e+00 0.0000000000000000e+00
410 -5.6000159926505999e+00 -1.3202899934200405e+00 0.0000000000000000e+00
411 -5.7994821706497302e+00 -9.3972117123390164e-01 0.0000000000000000e+00
412 -7.0000659030488510e+00 -1.6538040440764883e+00 0.0000000000000000e+00
413 -8.3943569838419023e+00 -1.2982416432784529e+00 0.0000000000000000e+00
414 -7.5171889204051565e+00 5.1341205849236993e-01 0.0000000000000000e+00
415 -7.8636181093125792e+00 -4.8626395327886024e-01 0.0000000000000000e+00
416 -8.5655017981917876e+00 -9.1440776546469638e-01 0.0000000000000000e+00
417 -6.9986374939293228e+00 1.6489109762212857e+00 0.0000000000000000e+00
418 -7.4000567452169728e+00 -1.6539559185897084e+00 0.0000000000000000e+00
419 -8.5563041753831950e+00 3.1411786016254567e-01 0.0000000000000000e+00
420 -5.7863773452714824e+00 3.1275076212474484e-01 0.0000000000000000e+00
421 -8.8927879084649835e+00 5.1925499372135175e-01 0.0000000000000000e+00
422 -4.9999675701950119e+00 -1.6536870528396934e+00 0.0000000000000000e+00
423 -6.4859504332102134e+00 -4.8827572823503734e-01 0.0000000000000000e+00
424 -5.0947749704418772e+00 -4.8585119993334996e-01 0.0000000000000000e+00
425 -4.7408918845700549e+00 5.6664043674994768e-01 0.0000000000000000e+00
426 -3.7999287916643150e+00 -1.6554899015916631e+00 0.0000000000000000e+00
427 -3.3694867077809389e+00 4.8530830020258869e-01 0.0000000000000000e+00
428 -6.1323517587471521e+00 5.1272427331478643e-01 0.0000000000000000e+00
429 -2.7157132672375193e+00 5.5785734048330005e-01 0.0000000000000000e+00
430 -3.0162133277322938e+00 -4.8419290495542411e-01 0.0000000000000000e+00
431 -2.5982675082143736e+00 1.6523273423911662e+00 0.0000000000000000e+00
432 -2.3397414216574375e+00 -4.8106695941226185e-01 0.0000000000000000e+00
433 -6.4087312545057962e-01 1.4446261070531161e-01 0.0000000000000000e+00
434 -3.2475952641809824e-01 1.0624999999981528e+00 0.0000000000000000e+00
435 -2.0019392714265773e+00 4.7098170661549560e-01 0.0000000000000000e+00
436 -2.6823281986431491e+00 -6.7447683810451020e-01 0.0000000000000000e+00
437 -1.3699278442847935e+00 9.4119429427441503e-01 0.0000000000000000e+00
438 -2.9996155814097776e+00 -8.3442341182328450e-01 0.0000000000000000e+00
439 -6.3843028577855931e-01 1.2476985229505273e+00 0.0000000000000000e+00
440 -5.8556110861533273e-01 -1.6851357276091568e+00 0.0000000000000000e+00
441 -6.2545070603298780e-01 1.6557820576230882e+00 0.0000000000000000e+00
442 -2.2399450617059429e-02 1.2029126287650128e-01 0.0000000000000000e+00
443 1.9375320631441500e+01 1.6783847856697096e-01 0.0000000000000000e+00
444 -9.5937002386972150e+00 1.3863939373369401e+00 0.0000000000000000e+00
445 -9.0159758487177299e+00 1.6766228202293574e+00 0.0000000000000000e+00
446 -5.1410858889236950e+00 1.0786557401438468e+00 0.0000000000000000e+00
447 -5.4217209748970649e+00 1.6586896551494477e+00 0.0000000000000000e+00
448 1.9439240084659797e+01 -2.1846874841046307e-01 0.0000000000000000e+00
449 -9.6973325534293064e-01 -4.2693673343429706e-01 0.0000000000000000e+00
450 -3.9805604376574122e+00 -6.4002073944985816e-01 0.0000000000000000e+00
451 -1.2395282103225687e+00 1.3301748195768495e+00 0.0000000000000000e+00
452 -6.8047284113764501e+00 -6.5155848009393258e-01 0.0000000000000000e+00
453 -3.0942273351438448e-01 -1.0240086812800322e+00 0.0000000000000000e+00
454 -9.2475874963409002e+00 7.3852374340872007e-01 0.0000000000000000e+00
455 -9.2714108428677662e+00 -4.4226516364582863e-01 0.0000000000000000e+00
456 -8.9780828876874033e+00 -1.0377086591766189e+00 0.0000000000000000e+00
457 -4.7722630256049241e+00 -6.4522430429532573e-01 0.0000000000000000e+00
458 -7.5541530700521626e+00 1.3148071960994943e+00 0.0000000000000000e+00
459 6.1287400811678638e-01 -2.2648886923879544e-01 0.0000000000000000e+00
460 6.5999999999972090e+00 2.3071796769704264e-01 0.0000000000000000e+00
461 7.3999999999967425e+00 2.3071796769704297e-01 0.0000000000000000e+00
462 3.3999999999990780e+00 2.3071796769704309e-01 0.0000000000000000e+00
463 4.9999999999981419e+00 2.3071796769704275e-01 0.0000000000000000e+00
464 4.1999999999986093e+00 2.3071796769704309e-01 0.0000000000000000e+00
465 5.7999999999976755e+00 2.3071796769704267e-01 0.0000000000000000e+00
466 6.9999999999879154e+00 -2.3071796769764952e-01 0.0000000000000000e+00
467 4.5999999999935186e+00 -2.3071796769764930e-01 0.0000000000000000e+00
468 6.1999999999897826e+00 -2.3071796769764968e-01 0.0000000000000000e+00
469 3.7999999999953866e+00 -2.3071796769764916e-01 0.0000000000000000e+00
470 5.3999999999916506e+00 -2.3071796769764955e-01 0.0000000000000000e+00
471 2.9999999999972289e+00 -2.3071796769762715e-01 0.0000000000000000e+00
472 2.5999999999995205e+00 2.3071796769706507e-01 0.0000000000000000e+00
473 7.7999999999862260e+00 -2.3071796769751335e-01 0.0000000000000000e+00
474 2.1999999999985138e+00 -2.3071796769747593e-01 0.0000000000000000e+00
475 1.0011427491243350e+00 2.2962279160730137e-01 0.0000000000000000e+00
476 1.3999999999990496e+00 -2.3071796769736416e-01 0.0000000000000000e+00
477 1.7999999999997021e+00 2.3071796769719485e-01 0.0000000000000000e+00
478 8.1999999999964359e+00 2.3071796769717878e-01 0.0000000000000000e+00
479 8.5999999999861707e+00 -2.3071796769720615e-01 0.0000000000000000e+00
480 1.8585844021047500e+01 2.3380828800281933e-01 0.0000000000000000e+00
481 1.7799999999999322e+01 2.3071796769735034e-01 0.0000000000000000e+00
482 1.3799999999998102e+01 2.3071796769734984e-01 0.0000000000000000e+00
483 1.1399999999997377e+01 2.3071796769735034e-01 0.0000000000000000e+00
484 1.6199999999998848e+01 2.3071796769734973e-01 0.0000000000000000e+00
485 9.7999999999968921e+00 2.3071796769735034e-01 0.0000000000000000e+00
486 1.2199999999997623e+01 2.3071796769735051e-01 0.0000000000000000e+00
487 1.5399999999998593e+01 2.3071796769734973e-01 0.0000000000000000e+00
488 8.9999999999966516e+00 2.3071796769735020e-01 0.0000000000000000e+00
489 1.6999999999999087e+01 2.3071796769735034e-01 0.0000000000000000e+00
490 1.2999999999997865e+01 2.3071796769735020e-01 0.0000000000000000e+00
491 1.4599999999998346e+01 2.3071796769734976e-01 0.0000000000000000e+00
492 1.0599999999997131e+01 2.3071796769735065e-01 0.0000000000000000e+00
493 9.3999999999871147e+00 -2.3071796769703465e-01 0.0000000000000000e+00
494 1.4199999999992938e+01 -2.3071796769703495e-01 0.0000000000000000e+00
495 1.8199999999997804e+01 -2.3071796769703465e-01 0.0000000000000000e+00
496 1.1799999999990030e+01 -2.3071796769703445e-01 0.0000000000000000e+00
497 1.3399999999991971e+01 -2.3071796769703476e-01 0.0000000000000000e+00
498 1.0199999999988082e+01 -2.3071796769703432e-01 0.0000000000000000e+00
499 1.2599999999991001e+01 -2.3071796769703451e-01 0.0000000000000000e+00
500 1.0999999999989054e+01 -2.3071796769703432e-01 0.0000000000000000e+00
501 1.9057296803555957e+01 -1.7252977805260347e-01 0.0000000000000000e+00
502 1.4999999999993912e+01 -2.3071796769703495e-01 0.0000000000000000e+00
503 1.5799999999994895e+01 -2.3071796769703495e-01 0.0000000000000000e+00
504 1.7399999999996833e+01 -2.3071796769703432e-01 0.0000000000000000e+00
505 1.6599999999995870e+01 -2.3071796769703465e-01 0.0000000000000000e+00
506 -1.7981822383189672e+00 1.0188311939432000e+00 0.0000000000000000e+00
507 -7.1977009006120909e+00 6.6676931593438249e-01 0.0000000000000000e+00
508 -4.3834965944011701e+00 6.7156020219777723e-01 0.0000000000000000e+00
509 -2.2980654569257286e+00 6.8048191818466497e-01 0.0000000000000000e+00
510 -7.5498024854343724e+00 -6.4339742271123224e-01 0.0000000000000000e+00
511 -6.1834061127209718e+00 -1.0377954107207263e+00 0.0000000000000000e+00
512 -5.4165313386264788e+00 -1.0341839829139921e+00 0.0000000000000000e+00
513 -6.4420755374886660e+00 6.5875652253912342e-01 0.0000000000000000e+00
514 -8.2000000000000082e+00 -1.0288399478199124e+00 0.0000000000000000e+00
515 -6.0569552245601868e+00 1.3042676086231639e+00 0.0000000000000000e+00
516 -8.9999999999999964e+00 -1.7320511758080090e+00 0.0000000000000000e+00
517 -2.8000000000000034e+00 -1.3869817618217004e+00 0.0000000000000000e+00
518 -3.0883860427535041e+00 6.3734303236099854e-01 0.0000000000000000e+00
519 -3.2039698944389383e-01 -1.5341101023746303e-02 0.0000000000000000e+00
520 -3.6560210967987699e+00 6.4877085291187753e-01 0.0000000000000000e+00
521 -8.2061914739634556e+00 1.7241035463402727e+00 0.0000000000000000e+00
522 -1.9999999999999976e+00 -1.3974222231770794e+00 0.0000000000000000e+00
523 -6.4768854146318600e-01 -2.0369650949513204e-01 0.0000000000000000e+00
524 -8.7090721515051595e+00 -1.2286350765845289e+00 0.0000000000000000e+00
525 -3.2871305958126675e+00 -6.6385366142190849e-01 0.0000000000000000e+00
526 -1.2623534931741127e+00 -1.3749184163771684e+00 0.0000000000000000e+00
527 -6.9755795492285977e-01 -1.3879521418519183e+00 0.0000000000000000e+00
528 2.6170813608781307e-01 2.2261501567965344e-01 0.0000000000000000e+00
529 -9.7071796769717373e+00 -1.7071796769714447e+00 0.0000000000000000e+00
530 -9.7176355282203115e+00 1.7368269072311084e+00 0.0000000000000000e+00
531 -9.2335174971152547e+00 1.4372220840679450e+00 0.0000000000000000e+00
532 -2.7721030810525549e-01 -1.7301423380215513e+00 0.0000000000000000e+00
533 -2.7721030810608149e-01 1.7301423380198133e+00 0.0000000000000000e+00
534 -9.0252789642912534e-01 1.3953113549879561e+00 0.0000000000000000e+00
535 -5.1616941368110094e+00 1.3936865808880696e+00 0.0000000000000000e+00
536 -5.8097265490677286e-01 -8.0274925315063617e-01 0.0000000000000000e+00
537 -3.7605927611106731e+00 -3.8949300570234091e-01 0.0000000000000000e+00
538 1.9737564716669443e+01 2.6602662615505823e-01 0.0000000000000000e+00
539 1.9747616924614924e+01 -2.7047364287183234e-01 0.0000000000000000e+00
540 -8.1601331260832910e-02 -1.7264133833476697e-01 0.0000000000000000e+00
541 -4.8791393300697914e+00 9.0779743040655259e-01 0.0000000000000000e+00
542 -1.9857489492357518e+00 7.7432762995837201e-01 0.0000000000000000e+00
543 -5.7941537188621064e+00 1.7765456563754189e+00 0.0000000000000000e+00
544 -3.0071657530728686e+00 -1.1220062422551802e+00 0.0000000000000000e+00
545 0.0000000000000000e+00 -6.8750000000029199e-01 0.0000000000000000e+00
546 1.9999999999985602e-01 -5.0000000000000000e-01 0.0000000000000000e+00
547 -1.5544764502751007e-01 -5.8580204022555460e-01 0.0000000000000000e+00
548 1.2932814748160468e-01 -3.1348423287212795e-01 0.0000000000000000e+00
549 -1.6193325560321029e-01 -4.2059419389116703e-01 0.0000000000000000e+00
550 1.9999999999999929e-01 5.0000000000000000e-01 0.0000000000000000e+00
551 0.0000000000000000e+00 6.8749999999907341e-01 0.0000000000000000e+00
552 -1.6301738755910006e-01 5.9405959004502096e-01 0.0000000000000000e+00
553 -1.6069745346491340e-01 4.1153064589163546e-01 0.0000000000000000e+00
554 -1.1199725308529715e-02 3.1014563143825064e-01 0.0000000000000000e+00
555 1.3085406804390654e-01 3.6130750783982674e-01 0.0000000000000000e+00
556 0.0000000000000000e+00 -1.0625000000008762e+00 0.0000000000000000e+00
557 -1.5471136675719224e-01 -1.1370043406406003e+00 0.0000000000000000e+00
558 -1.5544764502751007e-01 -7.7330204022584659e-01 0.0000000000000000e+00
559 -1.5471136675719224e-01 -9.4950434064030809e-01 0.0000000000000000e+00
560 3.2932814748146066e-01 -3.1348423287212795e-01 0.0000000000000000e+00
561 5.0285687281126890e-01 3.2405697901842417e-01 0.0000000000000000e+00
562 3.3085406804390582e-01 3.6130750783982674e-01 0.0000000000000000e+00
563 0.0000000000000000e+00 1.0624999999981528e+00 0.0000000000000000e+00
564 -1.6301738755910006e-01 7.8155959004409437e-01 0.0000000000000000e+00
565 -3.2371484102401349e-01 5.0559023593665631e-01 0.0000000000000000e+00
566 -4.8993723388582905e-01 5.9426453812322810e-01 0.0000000000000000e+00
567 -4.8926274718489970e-01 7.8414879349483679e-01 0.0000000000000000e+00
568 -3.1738090063072033e-01 -5.0639623411672163e-01 0.0000000000000000e+00
569 -4.7920726163729149e-01 -5.9217877508321282e-01 0.0000000000000000e+00
570 -3.1015901178470229e-01 -8.4780638086557070e-01 0.0000000000000000e+00
571 -4.8761729979164237e-01 4.1173559396984261e-01 0.0000000000000000e+00
572 -4.8113401619020324e-01 2.3376195124429122e-01 0.0000000000000000e+00
573 -1.7189717877344313e-01 2.2167627732988607e-01 0.0000000000000000e+00
574 -3.2089594818686029e-01 1.5386009537976228e-01 0.0000000000000000e+00
575 -6.5316520595252858e-01 6.9029415152802320e-01 0.0000000000000000e+00
576 -6.4735640905201874e-01 3.2243625343086302e-01 0.0000000000000000e+00
577 4.3218502029287431e-01 1.0572746146296219e-02 0.0000000000000000e+00
578 1.1812842217307497e-01 -3.3386014338773265e-03 0.0000000000000000e+00
579 2.6018221552551124e-01 4.7823274967698753e-02 0.0000000000000000e+00
580 -4.8569287221299173e-01 -4.2697092874882536e-01 0.0000000000000000e+00
581 -3.2213175032515717e-01 -1.7826474440304019e-01 0.0000000000000000e+00
582 -4.8577752633480331e-01 -2.7244244863873307e-01 0.0000000000000000e+00
583 -6.4760388734137442e-01 -3.5822498960522436e-01 0.0000000000000000e+00
584 4.3371094085517614e-01 1.8536448685825091e-01 0.0000000000000000e+00
585 -4.8063505744723672e-01 6.4560754840782650e-02 0.0000000000000000e+00
586 -6.4428083345688281e-01 -2.9616949394910219e-02 0.0000000000000000e+00
587 -1.7139822003047664e-01 5.2475080926377489e-02 0.0000000000000000e+00
588 1.1965434273537683e-01 1.7145313927807737e-01 0.0000000000000000e+00
589 -4.8404276545353991e-01 -1.0951880525943918e-01 0.0000000000000000e+00
590 -4.0800665630416455e-02 -3.3632066916738346e-01 0.0000000000000000e+00
591 0.0000000000000000e+00 -5.9375000000014599e-01 0.0000000000000000e+00
592 6.4664073740802339e-02 -4.0674211643606395e-01 0.0000000000000000e+00
593 -8.0966627801605143e-02 -4.6029709694558352e-01 0.0000000000000000e+00
594 9.9999999999999645e-02 5.0000000000000000e-01 0.0000000000000000e+00
595 -8.1508693779550029e-02 5.4702979502251048e-01 0.0000000000000000e+00
596 -5.5998626542648573e-03 4.0507281571912535e-01 0.0000000000000000e+00
597 6.5427034021953268e-02 4.3065375391991334e-01 0.0000000000000000e+00
598 0.0000000000000000e+00 -7.8125000000043798e-01 0.0000000000000000e+00
599 -2.4452608133865009e-01 6.4108938506753144e-01 0.0000000000000000e+00
600 -2.0273392123362674e-01 -2.5691486305855049e-01 0.0000000000000000e+00
601 -2.4289988340481544e-01 -3.8089129083675055e-01 0.0000000000000000e+00
602 -1.6799587962794571e-02 2.1521844715737595e-01 0.0000000000000000e+00
603 4.8627446059158697e-02 1.4587220107728932e-01 0.0000000000000000e+00
604 2.3863408110385884e-02 -2.4306278560344746e-01 0.0000000000000000e+00
605 -1.2176729343202160e-01 -2.9661776611296697e-01 0.0000000000000000e+00
606 2.6466407374065837e-01 -4.0674211643606395e-01 0.0000000000000000e+00
607 -1.5544764502751007e-01 -6.7955204022570059e-01 0.0000000000000000e+00
608 -2.3641427282911520e-01 -5.4609913717113812e-01 0.0000000000000000e+00
609 1.6542703402195291e-01 4.3065375391991334e-01 0.0000000000000000e+00
610 2.6542703402195256e-01 4.3065375391991334e-01 0.0000000000000000e+00
611 -8.1508693779550029e-02 7.3452979502158389e-01 0.0000000000000000e+00
612 -2.4220614724446343e-01 4.5856044091414588e-01 0.0000000000000000e+00
613 -1.6629731611917825e-01 3.1660346161076075e-01 0.0000000000000000e+00
614 5.9827171367688413e-02 3.3572656963903869e-01 0.0000000000000000e+00
615 5.4227308713423558e-02 2.4079938535816400e-01 0.0000000000000000e+00
616 2.3085406804390618e-01 3.6130750783982674e-01 0.0000000000000000e+00
617 1.2525420538964169e-01 2.6638032355895203e-01 0.0000000000000000e+00
$EndNodes
$Elements
1052
1 2 2 0 0 405 247 423
2 2 2 0 0 345 347 429
3 2 2 0 0 231 232 403
4 2 2 0 0 186 304 333
5 2 2 0 0 270 378 380
6 2 2 0 0 429 347 518
7 2 2 0 0 157 158 334
8 2 2 0 0 304 186 332
9 2 2 0 0 216 219 391
10 2 2 0 0 215 216 391
11 2 2 0 0 217 214 357
12 2 2 0 0 250 386 424
13 2 2 0 0 437 358 506
14 2 2 0 0 232 235 403
15 2 2 0 0 247 405 511
16 2 2 0 0 165 166 337
17 2 2 0 0 338 191 454
18 2 2 0 0 182 157 334
19 2 2 0 0 233 230 379
20 2 2 0 0 191 337 454
21 2 2 0 0 448 443 501
22 2 2 0 0 261 269 333
23 2 2 0 0 358 437 451
24 2 2 0 0 248 399 415
25 2 2 0 0 443 276 501
26 2 2 0 0 230 229 379
27 2 2 0 0 295 375 377
28 2 2 0 0 304 261 333
29 2 2 0 0 266 577 579
30 2 2 0 0 577 308 584
31 2 2 0 0 579 584 528
32 2 2 0 0 577 584 579
33 2 2 0 0 253 449 523
34 2 2 0 0 386 250 512
35 2 2 0 0 378 270 507
36 2 2 0 0 308 577 459
37 2 2 0 0 577 266 459
38 2 2 0 0 191 165 337
39 2 2 0 0 214 213 357
40 2 2 0 0 361 187 455
41 2 2 0 0 183 331 336
42 2 2 0 0 250 225 411
43 2 2 0 0 302 306 449
44 2 2 0 0 9 10 370
45 2 2 0 0 306 583 449
46 2 2 0 0 583 523 449
47 2 2 0 0 217 357 508
48 2 2 0 0 444 338 531
49 2 2 0 0 367 265 453
50 2 2 0 0 246 437 506
51 2 2 0 0 331 183 361
52 2 2 0 0 272 308 459
53 2 2 0 0 166 183 337
54 2 2 0 0 191 338 444
55 2 2 0 0 306 302 536
56 2 2 0 0 333 269 334
57 2 2 0 0 308 272 475
58 2 2 0 0 307 291 479
59 2 2 0 0 291 307 478
60 2 2 0 0 287 330 461
61 2 2 0 0 330 287 473
62 2 2 0 0 293 329 493
63 2 2 0 0 329 293 488
64 2 2 0 0 284 327 460
65 2 2 0 0 327 284 466
66 2 2 0 0 292 328 498
67 2 2 0 0 328 292 485
68 2 2 0 0 290 326 500
69 2 2 0 0 326 290 492
70 2 2 0 0 281 324 465
71 2 2 0 0 324 281 468
72 2 2 0 0 289 325 496
73 2 2 0 0 325 289 483
74 2 2 0 0 288 323 499
75 2 2 0 0 323 288 486
76 2 2 0 0 278 321 463
77 2 2 0 0 321 278 470
78 2 2 0 0 286 322 497
79 2 2 0 0 322 286 490
80 2 2 0 0 285 320 494
81 2 2 0 0 320 285 482
82 2 2 0 0 275 318 464
83 2 2 0 0 318 275 467
84 2 2 0 0 283 319 502
85 2 2 0 0 319 283 491
86 2 2 0 0 282 317 503
87 2 2 0 0 317 282 487
88 2 2 0 0 273 315 462
89 2 2 0 0 315 273 469
90 2 2 0 0 280 316 505
91 2 2 0 0 316 280 484
92 2 2 0 0 279 314 504
93 2 2 0 0 271 312 472
94 2 2 0 0 314 279 489
95 2 2 0 0 312 271 471
96 2 2 0 0 277 313 495
97 2 2 0 0 313 277 481
98 2 2 0 0 310 274 474
99 2 2 0 0 274 310 477
100 2 2 0 0 276 311 501
101 2 2 0 0 311 276 480
102 2 2 0 0 272 309 475
103 2 2 0 0 309 272 476
104 2 2 0 0 310 271 472
105 2 2 0 0 271 310 474
106 2 2 0 0 309 274 477
107 2 2 0 0 274 309 476
108 2 2 0 0 311 277 495
109 2 2 0 0 277 311 480
110 2 2 0 0 312 273 462
111 2 2 0 0 273 312 471
112 2 2 0 0 313 279 504
113 2 2 0 0 279 313 481
114 2 2 0 0 314 280 505
115 2 2 0 0 280 314 489
116 2 2 0 0 315 275 464
117 2 2 0 0 275 315 469
118 2 2 0 0 316 282 503
119 2 2 0 0 282 316 484
120 2 2 0 0 317 283 502
121 2 2 0 0 318 278 463
122 2 2 0 0 283 317 487
123 2 2 0 0 278 318 467
124 2 2 0 0 319 285 494
125 2 2 0 0 285 319 491
126 2 2 0 0 320 286 497
127 2 2 0 0 321 281 465
128 2 2 0 0 281 321 470
129 2 2 0 0 286 320 482
130 2 2 0 0 322 288 499
131 2 2 0 0 288 322 490
132 2 2 0 0 324 284 460
133 2 2 0 0 323 289 496
134 2 2 0 0 284 324 468
135 2 2 0 0 289 323 486
136 2 2 0 0 325 290 500
137 2 2 0 0 290 325 483
138 2 2 0 0 327 287 461
139 2 2 0 0 326 292 498
140 2 2 0 0 287 327 466
141 2 2 0 0 292 326 492
142 2 2 0 0 328 293 493
143 2 2 0 0 293 328 485
144 2 2 0 0 329 307 479
145 2 2 0 0 307 329 488
146 2 2 0 0 291 330 473
147 2 2 0 0 330 291 478
148 2 2 0 0 270 380 458
149 2 2 0 0 225 247 411
150 2 2 0 0 265 367 527
151 2 2 0 0 231 403 452
152 2 2 0 0 362 299 517
153 2 2 0 0 334 158 521
154 2 2 0 0 178 339 364
155 2 2 0 0 399 248 514
156 2 2 0 0 9 370 529
157 2 2 0 0 359 299 362
158 2 2 0 0 405 423 452
159 2 2 0 0 424 386 457
160 2 2 0 0 215 391 450
161 2 2 0 0 415 399 510
162 2 2 0 0 349 427 518
163 2 2 0 0 233 379 507
164 2 2 0 0 331 361 455
165 2 2 0 0 375 295 515
166 2 2 0 0 391 219 457
167 2 2 0 0 371 189 524
168 2 2 0 0 299 300 517
169 2 2 0 0 438 390 544
170 2 2 0 0 390 393 544
171 2 2 0 0 295 377 513
172 2 2 0 0 437 267 451
173 2 2 0 0 332 186 445
174 2 2 0 0 355 425 508
175 2 2 0 0 364 339 526
176 2 2 0 0 167 168 361
177 2 2 0 0 187 372 455
178 2 2 0 0 416 259 456
179 2 2 0 0 345 429 509
180 2 2 0 0 425 355 541
181 2 2 0 0 183 336 337
182 2 2 0 0 268 444 531
183 2 2 0 0 250 411 512
184 2 2 0 0 189 413 524
185 2 2 0 0 347 349 518
186 2 2 0 0 548 592 546
187 2 2 0 0 592 3 546
188 2 2 0 0 560 606 36
189 2 2 0 0 606 546 36
190 2 2 0 0 548 560 266
191 2 2 0 0 546 606 548
192 2 2 0 0 606 560 548
193 2 2 0 0 180 356 373
194 2 2 0 0 183 167 361
195 2 2 0 0 168 187 361
196 2 2 0 0 356 354 373
197 2 2 0 0 354 188 373
198 2 2 0 0 427 349 520
199 2 2 0 0 352 188 354
200 2 2 0 0 182 334 458
201 2 2 0 0 188 352 365
202 2 2 0 0 178 29 339
203 2 2 0 0 173 348 360
204 2 2 0 0 253 199 363
205 2 2 0 0 302 366 367
206 2 2 0 0 141 190 340
207 2 2 0 0 199 201 363
208 2 2 0 0 348 173 350
209 2 2 0 0 439 263 441
210 2 2 0 0 146 173 360
211 2 2 0 0 350 173 365
212 2 2 0 0 147 148 365
213 2 2 0 0 256 301 302
214 2 2 0 0 145 146 360
215 2 2 0 0 30 31 192
216 2 2 0 0 30 192 339
217 2 2 0 0 341 172 342
218 2 2 0 0 341 342 358
219 2 2 0 0 352 350 365
220 2 2 0 0 241 255 256
221 2 2 0 0 140 141 340
222 2 2 0 0 403 235 510
223 2 2 0 0 28 178 359
224 2 2 0 0 190 341 358
225 2 2 0 0 141 142 190
226 2 2 0 0 189 371 516
227 2 2 0 0 144 145 431
228 2 2 0 0 143 172 341
229 2 2 0 0 173 147 365
230 2 2 0 0 148 188 365
231 2 2 0 0 179 393 394
232 2 2 0 0 25 179 394
233 2 2 0 0 24 25 394
234 2 2 0 0 145 360 431
235 2 2 0 0 190 142 341
236 2 2 0 0 193 571 572
237 2 2 0 0 571 194 576
238 2 2 0 0 572 576 433
239 2 2 0 0 571 576 572
240 2 2 0 0 28 29 178
241 2 2 0 0 302 301 366
242 2 2 0 0 27 359 362
243 2 2 0 0 201 241 363
244 2 2 0 0 256 255 301
245 2 2 0 0 29 30 339
246 2 2 0 0 416 413 514
247 2 2 0 0 342 343 344
248 2 2 0 0 135 561 134
249 2 2 0 0 561 308 134
250 2 2 0 0 176 395 410
251 2 2 0 0 27 28 359
252 2 2 0 0 387 383 388
253 2 2 0 0 24 394 426
254 2 2 0 0 241 256 363
255 2 2 0 0 335 303 447
256 2 2 0 0 382 383 387
257 2 2 0 0 388 390 392
258 2 2 0 0 342 172 343
259 2 2 0 0 409 176 410
260 2 2 0 0 197 199 253
261 2 2 0 0 388 389 390
262 2 2 0 0 179 26 362
263 2 2 0 0 26 27 362
264 2 2 0 0 18 19 409
265 2 2 0 0 382 177 383
266 2 2 0 0 23 24 426
267 2 2 0 0 351 353 357
268 2 2 0 0 385 387 391
269 2 2 0 0 19 176 409
270 2 2 0 0 433 576 197
271 2 2 0 0 576 194 197
272 2 2 0 0 385 382 387
273 2 2 0 0 142 143 341
274 2 2 0 0 384 382 385
275 2 2 0 0 407 18 409
276 2 2 0 0 17 18 407
277 2 2 0 0 395 176 422
278 2 2 0 0 381 384 422
279 2 2 0 0 381 382 384
280 2 2 0 0 381 177 382
281 2 2 0 0 388 383 389
282 2 2 0 0 389 383 426
283 2 2 0 0 384 395 422
284 2 2 0 0 408 410 411
285 2 2 0 0 384 385 386
286 2 2 0 0 175 404 412
287 2 2 0 0 16 175 412
288 2 2 0 0 175 17 407
289 2 2 0 0 402 404 405
290 2 2 0 0 15 16 412
291 2 2 0 0 375 376 377
292 2 2 0 0 406 407 408
293 2 2 0 0 377 378 379
294 2 2 0 0 404 175 406
295 2 2 0 0 400 402 403
296 2 2 0 0 181 374 375
297 2 2 0 0 182 380 417
298 2 2 0 0 405 404 406
299 2 2 0 0 376 374 417
300 2 2 0 0 375 374 376
301 2 2 0 0 408 409 410
302 2 2 0 0 400 401 402
303 2 2 0 0 394 389 426
304 2 2 0 0 399 398 400
305 2 2 0 0 15 412 418
306 2 2 0 0 377 376 378
307 2 2 0 0 380 376 417
308 2 2 0 0 14 15 418
309 2 2 0 0 397 398 399
310 2 2 0 0 344 343 345
311 2 2 0 0 396 397 413
312 2 2 0 0 397 174 398
313 2 2 0 0 368 369 372
314 2 2 0 0 270 249 414
315 2 2 0 0 396 174 397
316 2 2 0 0 189 396 413
317 2 2 0 0 187 368 372
318 2 2 0 0 400 398 401
319 2 2 0 0 402 401 404
320 2 2 0 0 368 254 369
321 2 2 0 0 269 249 270
322 2 2 0 0 369 254 370
323 2 2 0 0 369 370 371
324 2 2 0 0 406 175 407
325 2 2 0 0 187 169 368
326 2 2 0 0 170 254 368
327 2 2 0 0 148 149 188
328 2 2 0 0 168 169 187
329 2 2 0 0 170 171 254
330 2 2 0 0 188 149 373
331 2 2 0 0 181 154 374
332 2 2 0 0 150 180 373
333 2 2 0 0 169 170 368
334 2 2 0 0 55 56 291
335 2 2 0 0 79 80 313
336 2 2 0 0 75 76 316
337 2 2 0 0 159 160 186
338 2 2 0 0 161 162 268
339 2 2 0 0 73 74 317
340 2 2 0 0 65 66 323
341 2 2 0 0 61 62 326
342 2 2 0 0 77 78 314
343 2 2 0 0 153 154 181
344 2 2 0 0 156 157 182
345 2 2 0 0 150 151 180
346 2 2 0 0 69 70 320
347 2 2 0 0 59 60 328
348 2 2 0 0 63 64 325
349 2 2 0 0 67 68 322
350 2 2 0 0 57 58 329
351 2 2 0 0 71 72 319
352 2 2 0 0 81 82 311
353 2 2 0 0 149 150 373
354 2 2 0 0 124 125 318
355 2 2 0 0 122 123 321
356 2 2 0 0 120 121 324
357 2 2 0 0 118 119 327
358 2 2 0 0 126 127 315
359 2 2 0 0 128 129 312
360 2 2 0 0 154 155 374
361 2 2 0 0 130 131 310
362 2 2 0 0 22 177 381
363 2 2 0 0 116 117 330
364 2 2 0 0 132 133 309
365 2 2 0 0 22 23 177
366 2 2 0 0 25 26 179
367 2 2 0 0 21 22 381
368 2 2 0 0 13 174 396
369 2 2 0 0 94 95 280
370 2 2 0 0 12 13 396
371 2 2 0 0 11 12 189
372 2 2 0 0 98 99 283
373 2 2 0 0 13 14 174
374 2 2 0 0 106 107 289
375 2 2 0 0 100 101 285
376 2 2 0 0 19 20 176
377 2 2 0 0 16 17 175
378 2 2 0 0 104 105 288
379 2 2 0 0 108 109 290
380 2 2 0 0 110 111 292
381 2 2 0 0 112 113 293
382 2 2 0 0 189 12 396
383 2 2 0 0 102 103 286
384 2 2 0 0 114 115 307
385 2 2 0 0 96 97 282
386 2 2 0 0 88 89 276
387 2 2 0 0 90 91 277
388 2 2 0 0 92 93 279
389 2 2 0 0 39 40 274
390 2 2 0 0 143 144 172
391 2 2 0 0 146 147 173
392 2 2 0 0 41 42 271
393 2 2 0 0 37 38 272
394 2 2 0 0 166 167 183
395 2 2 0 0 164 165 191
396 2 2 0 0 43 44 273
397 2 2 0 0 47 48 278
398 2 2 0 0 53 54 287
399 2 2 0 0 49 50 281
400 2 2 0 0 45 46 275
401 2 2 0 0 51 52 284
402 2 2 0 0 374 155 417
403 2 2 0 0 156 182 417
404 2 2 0 0 390 389 393
405 2 2 0 0 258 243 260
406 2 2 0 0 174 14 418
407 2 2 0 0 401 398 418
408 2 2 0 0 412 401 418
409 2 2 0 0 305 332 338
410 2 2 0 0 331 260 336
411 2 2 0 0 239 244 248
412 2 2 0 0 305 304 332
413 2 2 0 0 244 258 259
414 2 2 0 0 21 381 422
415 2 2 0 0 176 20 422
416 2 2 0 0 262 304 305
417 2 2 0 0 258 260 331
418 2 2 0 0 378 376 380
419 2 2 0 0 242 237 249
420 2 2 0 0 242 261 262
421 2 2 0 0 398 174 418
422 2 2 0 0 155 156 417
423 2 2 0 0 244 243 258
424 2 2 0 0 261 249 269
425 2 2 0 0 236 238 239
426 2 2 0 0 236 234 237
427 2 2 0 0 404 401 412
428 2 2 0 0 262 261 304
429 2 2 0 0 408 407 409
430 2 2 0 0 239 243 244
431 2 2 0 0 238 237 242
432 2 2 0 0 242 249 261
433 2 2 0 0 239 238 243
434 2 2 0 0 244 259 416
435 2 2 0 0 248 244 416
436 2 2 0 0 239 248 415
437 2 2 0 0 236 237 238
438 2 2 0 0 234 233 414
439 2 2 0 0 237 234 414
440 2 2 0 0 347 348 349
441 2 2 0 0 260 243 419
442 2 2 0 0 232 234 235
443 2 2 0 0 345 346 347
444 2 2 0 0 235 236 415
445 2 2 0 0 236 239 415
446 2 2 0 0 249 237 414
447 2 2 0 0 235 234 236
448 2 2 0 0 243 238 419
449 2 2 0 0 238 242 419
450 2 2 0 0 242 262 419
451 2 2 0 0 260 419 421
452 2 2 0 0 232 230 233
453 2 2 0 0 232 233 234
454 2 2 0 0 419 262 421
455 2 2 0 0 336 260 421
456 2 2 0 0 228 230 231
457 2 2 0 0 262 305 421
458 2 2 0 0 231 230 232
459 2 2 0 0 349 350 351
460 2 2 0 0 353 354 355
461 2 2 0 0 351 352 353
462 2 2 0 0 20 21 422
463 2 2 0 0 226 224 227
464 2 2 0 0 228 229 230
465 2 2 0 0 225 224 226
466 2 2 0 0 384 386 395
467 2 2 0 0 225 226 247
468 2 2 0 0 223 225 250
469 2 2 0 0 172 144 431
470 2 2 0 0 257 294 295
471 2 2 0 0 294 252 303
472 2 2 0 0 228 227 229
473 2 2 0 0 240 252 257
474 2 2 0 0 226 227 228
475 2 2 0 0 220 222 223
476 2 2 0 0 224 222 420
477 2 2 0 0 186 333 521
478 2 2 0 0 223 224 225
479 2 2 0 0 177 23 426
480 2 2 0 0 294 303 335
481 2 2 0 0 383 177 426
482 2 2 0 0 222 240 420
483 2 2 0 0 257 252 294
484 2 2 0 0 240 221 251
485 2 2 0 0 247 226 423
486 2 2 0 0 355 354 356
487 2 2 0 0 222 221 240
488 2 2 0 0 223 222 224
489 2 2 0 0 240 251 252
490 2 2 0 0 226 228 423
491 2 2 0 0 228 231 423
492 2 2 0 0 227 224 420
493 2 2 0 0 220 221 222
494 2 2 0 0 353 352 354
495 2 2 0 0 216 218 219
496 2 2 0 0 218 217 425
497 2 2 0 0 220 218 221
498 2 2 0 0 240 257 420
499 2 2 0 0 219 220 424
500 2 2 0 0 219 218 220
501 2 2 0 0 227 420 428
502 2 2 0 0 351 350 352
503 2 2 0 0 223 250 424
504 2 2 0 0 216 214 217
505 2 2 0 0 220 223 424
506 2 2 0 0 349 348 350
507 2 2 0 0 420 257 428
508 2 2 0 0 216 217 218
509 2 2 0 0 347 346 348
510 2 2 0 0 221 218 425
511 2 2 0 0 229 227 428
512 2 2 0 0 257 295 428
513 2 2 0 0 251 221 425
514 2 2 0 0 439 441 534
515 2 2 0 0 393 389 394
516 2 2 0 0 212 210 213
517 2 2 0 0 212 214 215
518 2 2 0 0 241 245 255
519 2 2 0 0 215 214 216
520 2 2 0 0 208 210 211
521 2 2 0 0 348 346 360
522 2 2 0 0 212 213 214
523 2 2 0 0 211 210 212
524 2 2 0 0 210 209 427
525 2 2 0 0 201 203 241
526 2 2 0 0 345 343 346
527 2 2 0 0 213 210 427
528 2 2 0 0 204 206 207
529 2 2 0 0 208 206 209
530 2 2 0 0 208 209 210
531 2 2 0 0 208 211 430
532 2 2 0 0 207 208 430
533 2 2 0 0 206 205 429
534 2 2 0 0 346 343 431
535 2 2 0 0 207 206 208
536 2 2 0 0 197 253 433
537 2 2 0 0 209 206 429
538 2 2 0 0 299 298 300
539 2 2 0 0 204 205 206
540 2 2 0 0 360 346 431
541 2 2 0 0 343 172 431
542 2 2 0 0 204 202 205
543 2 2 0 0 255 245 297
544 2 2 0 0 297 245 298
545 2 2 0 0 297 298 299
546 2 2 0 0 241 203 245
547 2 2 0 0 204 207 432
548 2 2 0 0 301 255 364
549 2 2 0 0 432 207 436
550 2 2 0 0 255 297 364
551 2 2 0 0 203 202 204
552 2 2 0 0 203 204 432
553 2 2 0 0 298 432 436
554 2 2 0 0 298 245 432
555 2 2 0 0 201 202 203
556 2 2 0 0 245 203 432
557 2 2 0 0 552 595 551
558 2 2 0 0 595 6 551
559 2 2 0 0 564 611 136
560 2 2 0 0 611 551 136
561 2 2 0 0 184 599 564
562 2 2 0 0 599 552 564
563 2 2 0 0 551 611 552
564 2 2 0 0 611 564 552
565 2 2 0 0 199 200 201
566 2 2 0 0 35 598 558
567 2 2 0 0 598 545 558
568 2 2 0 0 545 591 547
569 2 2 0 0 591 3 547
570 2 2 0 0 558 607 185
571 2 2 0 0 607 547 185
572 2 2 0 0 547 607 545
573 2 2 0 0 607 558 545
574 2 2 0 0 411 247 511
575 2 2 0 0 200 198 246
576 2 2 0 0 201 200 202
577 2 2 0 0 207 430 436
578 2 2 0 0 300 298 436
579 2 2 0 0 6 595 553
580 2 2 0 0 595 552 553
581 2 2 0 0 552 599 565
582 2 2 0 0 599 184 565
583 2 2 0 0 553 612 193
584 2 2 0 0 612 565 193
585 2 2 0 0 565 612 552
586 2 2 0 0 612 553 552
587 2 2 0 0 194 196 197
588 2 2 0 0 547 608 185
589 2 2 0 0 608 568 185
590 2 2 0 0 3 593 547
591 2 2 0 0 593 549 547
592 2 2 0 0 549 601 568
593 2 2 0 0 601 296 568
594 2 2 0 0 568 608 549
595 2 2 0 0 608 547 549
596 2 2 0 0 199 198 200
597 2 2 0 0 197 198 199
598 2 2 0 0 205 202 435
599 2 2 0 0 202 200 435
600 2 2 0 0 200 246 435
601 2 2 0 0 136 563 434
602 2 2 0 0 563 137 434
603 2 2 0 0 33 34 265
604 2 2 0 0 194 566 575
605 2 2 0 0 566 184 567
606 2 2 0 0 575 567 195
607 2 2 0 0 566 567 575
608 2 2 0 0 197 196 198
609 2 2 0 0 196 195 267
610 2 2 0 0 193 565 571
611 2 2 0 0 565 184 566
612 2 2 0 0 571 566 194
613 2 2 0 0 565 566 571
614 2 2 0 0 194 575 196
615 2 2 0 0 575 195 196
616 2 2 0 0 185 568 569
617 2 2 0 0 568 296 580
618 2 2 0 0 569 580 306
619 2 2 0 0 568 580 569
620 2 2 0 0 259 372 456
621 2 2 0 0 372 259 455
622 2 2 0 0 137 138 263
623 2 2 0 0 333 334 521
624 2 2 0 0 246 198 437
625 2 2 0 0 184 564 434
626 2 2 0 0 564 136 434
627 2 2 0 0 31 32 440
628 2 2 0 0 181 335 543
629 2 2 0 0 198 196 437
630 2 2 0 0 196 267 437
631 2 2 0 0 139 140 441
632 2 2 0 0 87 88 443
633 2 2 0 0 436 430 438
634 2 2 0 0 253 363 449
635 2 2 0 0 195 567 434
636 2 2 0 0 567 184 434
637 2 2 0 0 256 302 449
638 2 2 0 0 137 263 434
639 2 2 0 0 300 436 438
640 2 2 0 0 416 456 524
641 2 2 0 0 163 164 444
642 2 2 0 0 340 190 451
643 2 2 0 0 434 263 439
644 2 2 0 0 195 434 439
645 2 2 0 0 161 268 445
646 2 2 0 0 186 160 445
647 2 2 0 0 303 252 446
648 2 2 0 0 550 610 135
649 2 2 0 0 610 562 135
650 2 2 0 0 550 594 609
651 2 2 0 0 594 6 597
652 2 2 0 0 609 597 555
653 2 2 0 0 594 597 609
654 2 2 0 0 562 616 528
655 2 2 0 0 616 555 528
656 2 2 0 0 550 609 610
657 2 2 0 0 609 555 616
658 2 2 0 0 610 616 562
659 2 2 0 0 609 616 610
660 2 2 0 0 267 195 439
661 2 2 0 0 180 151 447
662 2 2 0 0 366 192 527
663 2 2 0 0 391 387 450
664 2 2 0 0 388 392 450
665 2 2 0 0 413 416 524
666 2 2 0 0 337 336 454
667 2 2 0 0 335 181 515
668 2 2 0 0 379 229 513
669 2 2 0 0 192 31 440
670 2 2 0 0 453 570 536
671 2 2 0 0 570 185 536
672 2 2 0 0 342 344 506
673 2 2 0 0 305 338 454
674 2 2 0 0 336 421 454
675 2 2 0 0 372 369 456
676 2 2 0 0 259 258 455
677 2 2 0 0 554 596 553
678 2 2 0 0 596 6 553
679 2 2 0 0 573 613 193
680 2 2 0 0 613 553 193
681 2 2 0 0 442 602 573
682 2 2 0 0 602 554 573
683 2 2 0 0 553 613 554
684 2 2 0 0 613 573 554
685 2 2 0 0 140 340 441
686 2 2 0 0 266 560 459
687 2 2 0 0 560 36 459
688 2 2 0 0 134 308 475
689 2 2 0 0 37 272 459
690 2 2 0 0 403 402 452
691 2 2 0 0 327 119 460
692 2 2 0 0 122 321 465
693 2 2 0 0 315 127 462
694 2 2 0 0 124 318 463
695 2 2 0 0 318 125 464
696 2 2 0 0 126 315 464
697 2 2 0 0 324 121 465
698 2 2 0 0 321 123 463
699 2 2 0 0 128 312 462
700 2 2 0 0 120 324 460
701 2 2 0 0 118 327 461
702 2 2 0 0 314 78 504
703 2 2 0 0 312 129 472
704 2 2 0 0 77 314 505
705 2 2 0 0 320 70 494
706 2 2 0 0 325 64 496
707 2 2 0 0 319 72 502
708 2 2 0 0 313 80 495
709 2 2 0 0 67 322 499
710 2 2 0 0 75 316 503
711 2 2 0 0 317 74 503
712 2 2 0 0 322 68 497
713 2 2 0 0 57 329 479
714 2 2 0 0 81 311 495
715 2 2 0 0 61 326 498
716 2 2 0 0 59 328 493
717 2 2 0 0 328 60 498
718 2 2 0 0 63 325 500
719 2 2 0 0 326 62 500
720 2 2 0 0 323 66 499
721 2 2 0 0 55 291 473
722 2 2 0 0 73 317 502
723 2 2 0 0 329 58 493
724 2 2 0 0 130 310 472
725 2 2 0 0 65 323 496
726 2 2 0 0 69 320 497
727 2 2 0 0 71 319 494
728 2 2 0 0 311 82 501
729 2 2 0 0 316 76 505
730 2 2 0 0 79 313 504
731 2 2 0 0 330 117 461
732 2 2 0 0 310 131 477
733 2 2 0 0 309 133 475
734 2 2 0 0 132 309 477
735 2 2 0 0 274 40 474
736 2 2 0 0 116 330 478
737 2 2 0 0 41 271 474
738 2 2 0 0 271 42 471
739 2 2 0 0 307 115 478
740 2 2 0 0 291 56 479
741 2 2 0 0 39 274 476
742 2 2 0 0 272 38 476
743 2 2 0 0 280 95 484
744 2 2 0 0 276 89 480
745 2 2 0 0 289 107 483
746 2 2 0 0 286 103 490
747 2 2 0 0 282 97 487
748 2 2 0 0 102 286 482
749 2 2 0 0 100 285 491
750 2 2 0 0 110 292 492
751 2 2 0 0 90 277 480
752 2 2 0 0 114 307 488
753 2 2 0 0 92 279 481
754 2 2 0 0 112 293 485
755 2 2 0 0 106 289 486
756 2 2 0 0 293 113 488
757 2 2 0 0 94 280 489
758 2 2 0 0 98 283 487
759 2 2 0 0 108 290 483
760 2 2 0 0 284 52 466
761 2 2 0 0 273 44 469
762 2 2 0 0 288 105 486
763 2 2 0 0 283 99 491
764 2 2 0 0 49 281 470
765 2 2 0 0 53 287 466
766 2 2 0 0 277 91 481
767 2 2 0 0 275 46 467
768 2 2 0 0 281 50 468
769 2 2 0 0 290 109 492
770 2 2 0 0 47 278 467
771 2 2 0 0 51 284 468
772 2 2 0 0 278 48 470
773 2 2 0 0 45 275 469
774 2 2 0 0 292 111 485
775 2 2 0 0 43 273 471
776 2 2 0 0 285 101 482
777 2 2 0 0 104 288 490
778 2 2 0 0 279 93 489
779 2 2 0 0 96 282 484
780 2 2 0 0 287 54 473
781 2 2 0 0 35 558 559
782 2 2 0 0 558 185 570
783 2 2 0 0 559 570 453
784 2 2 0 0 558 570 559
785 2 2 0 0 192 440 527
786 2 2 0 0 6 596 597
787 2 2 0 0 596 554 614
788 2 2 0 0 597 614 555
789 2 2 0 0 596 614 597
790 2 2 0 0 554 602 615
791 2 2 0 0 602 442 603
792 2 2 0 0 615 603 588
793 2 2 0 0 602 603 615
794 2 2 0 0 555 617 528
795 2 2 0 0 617 588 528
796 2 2 0 0 554 615 614
797 2 2 0 0 615 588 617
798 2 2 0 0 614 617 555
799 2 2 0 0 615 617 614
800 2 2 0 0 270 414 507
801 2 2 0 0 357 353 508
802 2 2 0 0 164 191 444
803 2 2 0 0 34 557 265
804 2 2 0 0 557 453 265
805 2 2 0 0 399 400 510
806 2 2 0 0 88 276 443
807 2 2 0 0 379 378 507
808 2 2 0 0 205 435 509
809 2 2 0 0 411 410 512
810 2 2 0 0 441 340 534
811 2 2 0 0 408 411 511
812 2 2 0 0 405 406 511
813 2 2 0 0 335 447 543
814 2 2 0 0 393 179 517
815 2 2 0 0 160 161 445
816 2 2 0 0 395 386 512
817 2 2 0 0 397 399 514
818 2 2 0 0 428 295 513
819 2 2 0 0 252 251 446
820 2 2 0 0 295 294 515
821 2 2 0 0 386 385 457
822 2 2 0 0 11 189 516
823 2 2 0 0 349 351 520
824 2 2 0 0 159 186 521
825 2 2 0 0 151 152 447
826 2 2 0 0 269 270 458
827 2 2 0 0 392 211 537
828 2 2 0 0 209 429 518
829 2 2 0 0 380 182 458
830 2 2 0 0 509 435 542
831 2 2 0 0 334 269 458
832 2 2 0 0 193 572 574
833 2 2 0 0 572 433 585
834 2 2 0 0 574 585 519
835 2 2 0 0 572 585 574
836 2 2 0 0 425 217 508
837 2 2 0 0 162 8 530
838 2 2 0 0 8 163 530
839 2 2 0 0 171 1 529
840 2 2 0 0 1 9 529
841 2 2 0 0 370 254 529
842 2 2 0 0 153 181 543
843 2 2 0 0 85 86 264
844 2 2 0 0 363 256 449
845 2 2 0 0 211 212 537
846 2 2 0 0 387 388 450
847 2 2 0 0 301 364 526
848 2 2 0 0 367 453 536
849 2 2 0 0 84 4 539
850 2 2 0 0 5 87 538
851 2 2 0 0 344 345 509
852 2 2 0 0 402 405 452
853 2 2 0 0 32 2 532
854 2 2 0 0 83 448 501
855 2 2 0 0 523 586 253
856 2 2 0 0 586 433 253
857 2 2 0 0 7 139 533
858 2 2 0 0 83 84 448
859 2 2 0 0 190 358 451
860 2 2 0 0 251 425 541
861 2 2 0 0 385 391 457
862 2 2 0 0 34 556 557
863 2 2 0 0 556 35 559
864 2 2 0 0 557 559 453
865 2 2 0 0 556 559 557
866 2 2 0 0 178 364 522
867 2 2 0 0 423 231 452
868 2 2 0 0 519 585 589
869 2 2 0 0 585 433 586
870 2 2 0 0 589 586 523
871 2 2 0 0 585 586 589
872 2 2 0 0 2 33 532
873 2 2 0 0 248 416 514
874 2 2 0 0 138 7 533
875 2 2 0 0 264 443 448
876 2 2 0 0 302 367 536
877 2 2 0 0 211 392 525
878 2 2 0 0 421 305 454
879 2 2 0 0 369 371 456
880 2 2 0 0 258 331 455
881 2 2 0 0 219 424 457
882 2 2 0 0 87 443 538
883 2 2 0 0 36 37 459
884 2 2 0 0 430 211 525
885 2 2 0 0 339 192 526
886 2 2 0 0 358 342 506
887 2 2 0 0 50 51 468
888 2 2 0 0 48 49 470
889 2 2 0 0 46 47 467
890 2 2 0 0 52 53 466
891 2 2 0 0 44 45 469
892 2 2 0 0 42 43 471
893 2 2 0 0 117 118 461
894 2 2 0 0 40 41 474
895 2 2 0 0 127 128 462
896 2 2 0 0 119 120 460
897 2 2 0 0 123 124 463
898 2 2 0 0 125 126 464
899 2 2 0 0 121 122 465
900 2 2 0 0 54 55 473
901 2 2 0 0 129 130 472
902 2 2 0 0 38 39 476
903 2 2 0 0 133 134 475
904 2 2 0 0 131 132 477
905 2 2 0 0 115 116 478
906 2 2 0 0 56 57 479
907 2 2 0 0 64 65 496
908 2 2 0 0 70 71 494
909 2 2 0 0 66 67 499
910 2 2 0 0 72 73 502
911 2 2 0 0 68 69 497
912 2 2 0 0 62 63 500
913 2 2 0 0 58 59 493
914 2 2 0 0 60 61 498
915 2 2 0 0 74 75 503
916 2 2 0 0 76 77 505
917 2 2 0 0 80 81 495
918 2 2 0 0 78 79 504
919 2 2 0 0 82 83 501
920 2 2 0 0 89 90 480
921 2 2 0 0 103 104 490
922 2 2 0 0 91 92 481
923 2 2 0 0 97 98 487
924 2 2 0 0 107 108 483
925 2 2 0 0 113 114 488
926 2 2 0 0 105 106 486
927 2 2 0 0 101 102 482
928 2 2 0 0 111 112 485
929 2 2 0 0 95 96 484
930 2 2 0 0 109 110 492
931 2 2 0 0 99 100 491
932 2 2 0 0 93 94 489
933 2 2 0 0 192 366 526
934 2 2 0 0 181 375 515
935 2 2 0 0 235 415 510
936 2 2 0 0 414 233 507
937 2 2 0 0 355 356 541
938 2 2 0 0 299 359 522
939 2 2 0 0 180 447 535
940 2 2 0 0 353 355 508
941 2 2 0 0 364 297 522
942 2 2 0 0 429 205 509
943 2 2 0 0 400 403 510
944 2 2 0 0 447 152 543
945 2 2 0 0 377 379 513
946 2 2 0 0 443 264 538
947 2 2 0 0 356 180 535
948 2 2 0 0 344 509 542
949 2 2 0 0 588 603 578
950 2 2 0 0 603 442 578
951 2 2 0 0 578 266 579
952 2 2 0 0 588 579 528
953 2 2 0 0 578 579 588
954 2 2 0 0 370 10 516
955 2 2 0 0 86 5 538
956 2 2 0 0 4 85 539
957 2 2 0 0 406 408 511
958 2 2 0 0 357 213 520
959 2 2 0 0 297 299 522
960 2 2 0 0 410 395 512
961 2 2 0 0 440 265 527
962 2 2 0 0 229 428 513
963 2 2 0 0 413 397 514
964 2 2 0 0 440 32 532
965 2 2 0 0 139 441 533
966 2 2 0 0 294 335 515
967 2 2 0 0 356 446 541
968 2 2 0 0 213 427 520
969 2 2 0 0 371 370 516
970 2 2 0 0 10 11 516
971 2 2 0 0 179 362 517
972 2 2 0 0 447 303 535
973 2 2 0 0 3 592 590
974 2 2 0 0 592 548 604
975 2 2 0 0 590 604 540
976 2 2 0 0 592 604 590
977 2 2 0 0 540 604 266
978 2 2 0 0 604 548 266
979 2 2 0 0 450 392 537
980 2 2 0 0 427 209 518
981 2 2 0 0 351 357 520
982 2 2 0 0 359 178 522
983 2 2 0 0 158 159 521
984 2 2 0 0 265 440 532
985 2 2 0 0 438 430 525
986 2 2 0 0 340 451 534
987 2 2 0 0 441 263 533
988 2 2 0 0 296 581 582
989 2 2 0 0 581 519 589
990 2 2 0 0 582 589 523
991 2 2 0 0 581 589 582
992 2 2 0 0 390 438 525
993 2 2 0 0 393 517 544
994 2 2 0 0 163 444 530
995 2 2 0 0 306 580 583
996 2 2 0 0 580 296 582
997 2 2 0 0 583 582 523
998 2 2 0 0 580 582 583
999 2 2 0 0 392 390 525
1000 2 2 0 0 367 366 527
1001 2 2 0 0 445 268 531
1002 2 2 0 0 308 561 584
1003 2 2 0 0 561 135 562
1004 2 2 0 0 584 562 528
1005 2 2 0 0 561 562 584
1006 2 2 0 0 296 601 600
1007 2 2 0 0 601 549 605
1008 2 2 0 0 600 605 540
1009 2 2 0 0 601 605 600
1010 2 2 0 0 549 593 605
1011 2 2 0 0 593 3 590
1012 2 2 0 0 605 590 540
1013 2 2 0 0 593 590 605
1014 2 2 0 0 366 301 526
1015 2 2 0 0 446 356 535
1016 2 2 0 0 506 344 542
1017 2 2 0 0 254 171 529
1018 2 2 0 0 268 162 530
1019 2 2 0 0 338 332 531
1020 2 2 0 0 442 573 587
1021 2 2 0 0 573 193 574
1022 2 2 0 0 587 574 519
1023 2 2 0 0 573 574 587
1024 2 2 0 0 435 246 542
1025 2 2 0 0 303 446 535
1026 2 2 0 0 264 448 539
1027 2 2 0 0 212 215 537
1028 2 2 0 0 33 265 532
1029 2 2 0 0 263 138 533
1030 2 2 0 0 152 153 543
1031 2 2 0 0 185 569 536
1032 2 2 0 0 569 306 536
1033 2 2 0 0 444 268 530
1034 2 2 0 0 215 450 537
1035 2 2 0 0 448 84 539
1036 2 2 0 0 266 578 540
1037 2 2 0 0 578 442 540
1038 2 2 0 0 332 445 531
1039 2 2 0 0 267 439 534
1040 2 2 0 0 300 438 544
1041 2 2 0 0 456 371 524
1042 2 2 0 0 451 267 534
1043 2 2 0 0 446 251 541
1044 2 2 0 0 246 506 542
1045 2 2 0 0 85 264 539
1046 2 2 0 0 264 86 538
1047 2 2 0 0 442 587 540
1048 2 2 0 0 587 519 540
1049 2 2 0 0 519 581 540
1050 2 2 0 0 296 600 581
1051 2 2 0 0 600 540 581
1052 2 2 0 0 517 300 544
$EndElements
